HIERARCHY
ROOT pelvis
{
  OFFSET 0 100 0
  CHANNELS 6 Xposition Yposition Zposition Zrotation Xrotation Yrotation
  JOINT pelvis_right_femur
  {
    OFFSET -10.78128 -3.44521 -0.5502486
    CHANNELS 3 Zrotation Xrotation Yrotation
    JOINT right_femur_tibia
    {
      OFFSET -0.8047443 -44.0398 -0.1307829
      CHANNELS 3 Zrotation Xrotation Yrotation
      JOINT right_tibia_foot
      {
        OFFSET 3.006224 -47.83518 -5
        CHANNELS 3 Zrotation Xrotation Yrotation
        End Site
        {
          OFFSET 0 -5 15
        }
      }
    }
  }
  JOINT pelvis_left_femur
  {
    OFFSET 10.78128 -3.44521 -0.5502486
    CHANNELS 3 Zrotation Xrotation Yrotation
    JOINT left_femur_tibia
    {
      OFFSET 0.8047443 -44.0398 -0.1307829
      CHANNELS 3 Zrotation Xrotation Yrotation
      JOINT left_tibia_foot
      {
        OFFSET -4.370144 -48.10324 -4.275266
        CHANNELS 3 Zrotation Xrotation Yrotation
        End Site
        {
          OFFSET 0 -5 15
        }
      }
    }
  }
  JOINT pelvis_spine1
  {
    OFFSET 0 6.468898 -3.129235
    CHANNELS 3 Zrotation Xrotation Yrotation
    JOINT spine1
    {
      OFFSET 0 23.15396 4.99043
      CHANNELS 3 Zrotation Xrotation Yrotation
      JOINT spine2
      {
        OFFSET 0 20.79997 -5.064912
        CHANNELS 3 Zrotation Xrotation Yrotation
        JOINT neck
        {
          OFFSET 0 14.38658 9.616178
          CHANNELS 3 Zrotation Xrotation Yrotation
          End Site
          {
            OFFSET 0 20 0
          }
        }
      }
      JOINT right_manubrium
      {
        OFFSET -5.722621 16.35077 3.967754
        CHANNELS 3 Zrotation Xrotation Yrotation
        JOINT right_clavicle
        {
          OFFSET -13.16364 1.694482 -4.693211
          CHANNELS 3 Zrotation Xrotation Yrotation
          JOINT right_humerus
          {
            OFFSET -28.5034 -0.3100689 -2.792744
            CHANNELS 3 Zrotation Xrotation Yrotation
            JOINT right_radius
            {
              OFFSET -25.15693 0.02248979 -1.271978
              CHANNELS 3 Zrotation Xrotation Yrotation
              End Site
              {
                OFFSET -15 0 0
              }
            }
          }
        }
      }
      JOINT left_manubrium
      {
        OFFSET 5.722621 16.35077 3.967754
        CHANNELS 3 Zrotation Xrotation Yrotation
        JOINT left_clavicle
        {
          OFFSET 13.16364 1.694482 -4.693211
          CHANNELS 3 Zrotation Xrotation Yrotation
          JOINT left_humerus
          {
            OFFSET 29.39168 -1.063119 -2.237045
            CHANNELS 3 Zrotation Xrotation Yrotation
            JOINT left_radius
            {
              OFFSET 24.59957 -0.9528479 0.9047498
              CHANNELS 3 Zrotation Xrotation Yrotation
              End Site
              {
                OFFSET 15 -0 -0
              }
            }
          }
        }
      }
    }
  }
}
MOTION
Frames: 7
Frame Time: 0.0416666666667
0 103.5113 0 2.34157 -0.4754197 0.1100607 3.124829 -15.50178 11.19253 -0 36.9488 -0 -2.548239 -17.91643 -2.526334 -8.506659 10.21699 -22.40476 -0 3.8737 -0 21.24392 -8.45976 30.06906 -3.623103 -3.297719 4.967639 3.432349 10.24902 -7.278389 1.614095 21.46269 6.652405 2.276619 -27.0269 10.91041 5.596148 -20.78055 11.70043 86.21933 38.13352 -18.89917 -0 0 14.46184 -4.633634 7.297046 4.485076 4.928201 -18.96645 -2.517524 -92.24189 23.65102 21.81001 0 0 -19.84877 14.81893 12.49106 -2.107545
0.453985 103.455 1.728643 1.741795 0.9567026 0.1428918 4.458069 -19.21504 12.54736 -0 36.28747 -0 -2.667191 -17.69158 -2.917712 -8.32636 10.25299 -22.34776 -0 4.227125 -0 21.81963 -9.428541 30.689 -3.640339 -3.194912 4.923719 3.450159 10.18699 -7.258115 1.542183 21.43409 6.861769 2.321057 -27.09852 11.0611 5.428716 -20.79018 11.72645 86.4467 38.66944 -18.94058 -0 0 14.06406 -4.685998 7.258893 4.738188 4.943137 -18.96871 -2.580152 -91.59698 23.27695 21.29518 0 0 -20.91644 15.43586 11.7705 -2.706527
0.8448507 103.1999 3.572062 1.603236 -0.004556691 0.246877 3.973598 -18.99921 9.506501 -0 34.10923 -0 -4.187464 -15.54803 -2.47203 -8.009072 10.95693 -21.96651 -0 4.916764 -0 17.09193 -12.75026 28.71074 -3.446827 -2.816689 4.479599 3.723906 10.14183 -7.598695 1.384367 21.42916 6.748651 2.314848 -26.7157 10.45631 5.565131 -19.88616 11.81929 86.68085 37.6706 -19.58534 -0 0 12.88826 -5.325728 7.436256 5.169643 4.773232 -19.25274 -2.823743 -90.87837 23.22483 20.22082 0 0 -20.93102 13.8616 11.69061 -1.196886
1.192119 102.9325 5.528595 1.264246 0.2208789 0.3148613 4.343919 -20.65801 8.840624 -0 32.73396 -0 -4.77018 -14.41236 -2.455162 -7.739381 11.294 -21.68331 -0 5.332866 -0 15.1696 -14.58741 27.89529 -3.419817 -2.65543 4.288888 3.837607 10.0729 -7.710746 1.279467 21.45223 6.770454 2.332399 -26.64791 10.24541 5.565031 -19.60365 11.85176 86.7925 37.33354 -19.80039 -0 0 12.429 -5.599636 7.353834 5.445749 4.663176 -19.29492 -2.967738 -90.61526 23.32184 19.86493 0 0 -21.03294 13.14419 11.53699 -0.4734358
1.500233 102.6065 7.634214 0.8778733 0.5614203 0.3878454 4.818383 -22.71259 8.27028 -0 31.04299 -0 -5.265781 -13.08745 -2.429327 -7.429565 11.65009 -21.27043 -0 5.792193 -0 13.3099 -16.4086 26.95092 -3.377958 -2.506189 4.116327 3.937739 10.02674 -7.822083 1.195902 21.46861 6.762534 2.341922 -26.5439 10.02761 5.585987 -19.31146 11.88368 86.87635 36.97662 -20.0001 -0 0 12.01252 -5.879847 7.340182 5.677258 4.56817 -19.35426 -3.087269 -90.37694 23.388 19.52078 0 0 -21.05525 12.45677 11.44312 0.2116064
1.783093 102.224 9.942359 0.4960097 1.048063 0.4783885 5.409525 -25.02692 7.937435 -0 29.09064 -0 -5.594566 -11.69014 -2.341812 -7.152768 11.96953 -20.71702 -0 6.33583 -0 12.17847 -17.75984 26.12315 -3.361309 -2.400495 3.991343 4.009187 9.981599 -7.894892 1.128507 21.4886 6.767184 2.35236 -26.48962 9.87608 5.593698 -19.1238 11.90473 86.92967 36.72468 -20.12517 -0 0 11.73503 -6.085005 7.297125 5.860922 4.487516 -19.37536 -3.181162 -90.23699 23.48203 19.3153 0 0 -21.05375 11.9208 11.37138 0.7537897
2.048283 101.7857 12.51662 0.1146881 1.609089 0.6045011 6.049478 -27.45598 7.644974 -0 26.83819 -0 -5.872523 -10.14058 -2.169919 -6.885893 12.31596 -20.03314 -0 7.050921 -0 11.36675 -18.82085 25.24592 -3.340901 -2.310399 3.887998 4.066722 9.949824 -7.95828 1.076315 21.50288 6.763468 2.359343 -26.42867 9.742763 5.605439 -18.95523 11.92337 86.97032 36.5048 -20.2305 -0 0 11.50076 -6.26949 7.285697 6.0096 4.423164 -19.40118 -3.255214 -90.11197 23.54598 19.12985 0 0 -21.04163 11.47207 11.31862 1.205353
